<svg width="138" height="32" viewBox="0 0 138 32" fill="none" xmlns="http://www.w3.org/2000/svg">
<g clip-path="url(#clip0_228_20)">
<path fill-rule="evenodd" clip-rule="evenodd" d="M1.33716 5V32H28.4682V16.584H25.4537V29H4.35172V8H16.8293V5H1.33716ZM25.451 0V5H20.4267V8H25.451V13H28.4655V8H33.4898V5H28.4655V0H25.451Z" fill="white"/>
<path fill-rule="evenodd" clip-rule="evenodd" d="M16.8278 24.9998V11.8331H14.1482C14.1482 12.7398 13.8414 13.4224 13.3765 13.8278C12.8915 14.2331 12.1559 14.4158 11.3025 14.4158H10.9675V16.5838H13.8133V24.9998H16.8278ZM47.9971 18.2171C47.9971 15.1798 46.6265 12.8224 43.8222 12.8224C41.018 12.8224 39.5844 15.1798 39.5844 18.2171C39.5844 21.2344 41.018 23.5918 43.8222 23.5918C46.6265 23.5918 47.9971 21.2331 47.9971 18.2171ZM36.4185 18.2171C36.4185 13.6704 39.2857 10.2944 43.8021 10.2944C48.32 10.2944 51.1657 13.6718 51.1657 18.2171C51.1657 22.7638 48.32 26.1198 43.8021 26.1198C39.287 26.1198 36.4185 22.7638 36.4185 18.2171ZM53.8172 10.5918H56.9644L62.0583 19.0678C62.5501 19.8944 63.1275 21.1918 63.1275 21.1918H63.1717C63.1717 21.1918 63.086 19.6184 63.086 18.5571V10.5918H66.1461V25.7784H63.1503L57.9264 17.3891C57.4347 16.5824 56.8358 15.2864 56.8358 15.2864H56.7929C56.7929 15.2864 56.8787 16.8798 56.8787 17.9411V25.7798H53.8172V10.5918ZM69.6751 10.5918H80.9335V13.1824H72.7795V16.5824H79.9287V19.1091H72.7781V23.2091H80.9965V25.7798H69.6738V10.5918H69.6751ZM87.2078 17.7718H90.418C92.0445 17.7718 92.9007 16.8784 92.9007 15.4984C92.9007 14.0758 92.003 13.2678 90.4622 13.2678H87.2065L87.2078 17.7718ZM83.9923 10.5918H90.7141C92.4907 10.5918 93.8171 11.1011 94.7161 12.0158C95.5736 12.8864 96.0867 14.0758 96.0867 15.4771C96.0867 18.3438 94.1815 20.2771 90.9714 20.2771H87.2038V25.7798H83.9936V10.5931L83.9923 10.5918ZM98.3818 10.5918H101.485V23.2091H108.677V25.7798H98.3818V10.5918ZM110.322 20.8931V10.5931H113.426V20.8958C113.426 22.4664 114.217 23.5718 116.294 23.5718C118.263 23.5718 119.184 22.4251 119.184 20.8531V10.5918H122.288V20.8944C122.288 24.1438 120.276 26.0344 116.359 26.0344C112.399 26.0344 110.322 24.1851 110.322 20.8931ZM124.471 21.0851H127.511C127.725 22.9118 128.773 23.6344 130.957 23.6344C132.54 23.6344 133.931 23.0824 133.931 21.6798C133.931 20.1931 132.477 19.8958 130.143 19.3651C127.403 18.7491 124.899 18.0264 124.899 14.8611C124.899 11.8664 127.36 10.3158 130.764 10.3158C134.211 10.3158 136.436 11.9931 136.672 15.0531H133.696C133.525 13.5224 132.327 12.7584 130.742 12.7584C129.073 12.7584 127.982 13.4598 127.982 14.5424C127.982 15.7744 129.051 16.1358 131.321 16.6251C134.467 17.3051 137.035 18.0478 137.035 21.3184C137.035 24.3984 134.531 26.1184 131.086 26.1184C126.933 26.1184 124.578 24.2918 124.471 21.0851Z" fill="white"/>
</g>
<defs>
<clipPath id="clip0_228_20">
<rect width="138" height="32" fill="white"/>
</clipPath>
</defs>
</svg>
