<svg width="101" height="103" viewBox="0 0 101 103" fill="none" xmlns="http://www.w3.org/2000/svg">
<g id="svgexport-6 (7) 1">
<path id="Vector" d="M82.4041 81.881L82.4176 81.8347C82.5258 81.4624 82.6629 81.0366 83.1052 80.6946L83.1059 80.694C83.8143 80.1484 84.6414 79.9062 85.4183 79.7869M82.4041 81.881L85.4941 80.2811M82.4041 81.881L82.3998 81.929C82.377 82.1794 82.3422 82.4225 82.3005 82.6506C82.2796 82.7599 82.2469 82.8087 82.2307 82.828C82.2145 82.8474 82.1972 82.8585 82.1761 82.8666C82.1517 82.8759 82.1228 82.8806 82.0948 82.8815C82.0767 82.8821 82.0639 82.881 82.0598 82.8805C82.0394 82.8769 82.001 82.867 81.9709 82.844C81.9586 82.8346 81.9464 82.8221 81.9355 82.8014C81.9251 82.7816 81.9088 82.741 81.9034 82.6667L81.9042 82.6447C81.9054 82.6188 81.9074 82.5846 81.9098 82.5466C81.9146 82.471 81.9206 82.3894 81.9243 82.3459C81.9419 82.1462 81.9614 81.9835 82.0017 81.8317L82.0143 81.7847L82.0175 81.7361C82.0415 81.3703 82.0385 80.9768 81.9788 80.5899C81.8968 80.0456 81.7006 79.4086 81.1659 78.996C80.7514 78.6748 80.2664 78.4934 79.8152 78.3653C79.588 78.3008 79.3593 78.2473 79.1459 78.1979C79.1311 78.1945 79.1165 78.1911 79.1019 78.1877C78.9014 78.1413 78.7165 78.0986 78.5416 78.0508L78.5416 78.0507C78.4755 78.0327 78.3798 77.9402 78.3959 77.7773M82.4041 81.881L78.3959 77.7773M85.4183 79.7869L85.4941 80.2811M85.4183 79.7869C85.4181 79.787 85.4179 79.787 85.4178 79.787L85.4941 80.2811M85.4183 79.7869C85.4587 79.7807 85.5257 79.7742 85.5853 79.7684C85.591 79.7679 85.5968 79.7673 85.6024 79.7667C85.6765 79.7595 85.7645 79.7509 85.8572 79.7403C86.0551 79.7176 86.2292 79.6904 86.321 79.6626M85.4941 80.2811C85.5198 80.2772 85.574 80.2719 85.6453 80.2649C85.8666 80.2433 86.2532 80.2056 86.4661 80.141M86.321 79.6626C86.321 79.6626 86.3209 79.6626 86.3209 79.6626L86.4661 80.141M86.321 79.6626C86.4642 79.6191 86.5414 79.5392 86.5677 79.5039M86.321 79.6626L86.4661 80.141M86.4661 80.141L86.5677 79.5039M86.5677 79.5039C86.5666 79.5056 86.5655 79.5073 86.5643 79.509L86.9782 79.7894L86.5703 79.5003C86.5695 79.5014 86.5687 79.5026 86.5677 79.5039ZM86.5677 79.5039C86.6134 79.4347 86.6258 79.3771 86.6289 79.3268L86.6293 79.3201L86.6293 79.3201C86.6358 79.2321 86.6175 79.1712 86.5774 79.1144L86.5769 79.1138C86.5572 79.0858 86.53 79.0577 86.4904 79.0354M86.5677 79.5039L87.1279 79.3571C87.1423 79.1632 87.0982 78.9852 86.9858 78.826C86.9267 78.742 86.8399 78.6539 86.7149 78.5884C86.6536 78.5558 86.4748 78.5061 86.4114 78.4888C86.3978 78.4823 86.3841 78.4758 86.3705 78.4692C86.2077 78.3912 86.0454 78.3134 85.8911 78.2207C85.4762 77.9715 85.1557 77.5798 84.9064 77.1471C84.619 76.648 84.5098 76.1163 84.4618 75.5309C84.4544 75.4289 84.3432 74.528 84.301 74.3531M86.4904 79.0354C86.4928 79.0364 86.4945 79.037 86.4953 79.0374C86.4979 79.0384 86.4927 79.0364 86.4829 79.0313C86.4854 79.0327 86.4879 79.034 86.4904 79.0354ZM86.4904 79.0354C86.488 79.0345 86.4849 79.0333 86.4809 79.0319C86.4644 79.0259 86.4423 79.0186 86.4161 79.0105C86.364 78.9944 86.31 78.9795 86.2798 78.9712L86.236 78.9592L86.195 78.9396C86.1808 78.9327 86.1663 78.9258 86.1517 78.9188C85.9923 78.8425 85.8092 78.7548 85.6337 78.6494L85.6337 78.6494C85.1199 78.3408 84.7466 77.8714 84.4732 77.3968L84.4731 77.3967C84.1339 76.8075 84.0144 76.193 83.9635 75.5718L83.9631 75.5672M83.9631 75.5672C83.9631 75.5672 83.9631 75.5671 83.9631 75.5671L83.9631 75.5671L83.9631 75.5672ZM83.9631 75.5672C83.9632 75.5678 83.9629 75.5639 83.9618 75.5529L83.9575 75.513C83.9539 75.4803 83.949 75.4376 83.943 75.3878C83.9311 75.2882 83.9155 75.1624 83.8987 75.0343C83.8819 74.9059 83.8642 74.7769 83.8484 74.6703C83.8404 74.6169 83.8332 74.5707 83.8269 74.5339C83.8237 74.5155 83.821 74.5006 83.8188 74.4889L83.816 74.4752C83.8157 74.4735 83.8154 74.4723 83.8152 74.4715C83.8154 74.4724 83.8157 74.4733 83.8159 74.4742L84.301 74.3531M84.301 74.3531L83.815 74.4704C83.815 74.4705 83.8151 74.4708 83.8152 74.4715M84.301 74.3531C84.1455 73.7298 83.6066 73.7742 83.5078 73.7929M83.8152 74.4715L78.569 77.0347C79.6111 76.9663 80.9135 76.1158 81.7651 75.4044M83.8152 74.4715C83.7937 74.3866 83.7658 74.3481 83.7516 74.3322C83.7371 74.3158 83.7216 74.3059 83.7026 74.2986C83.6812 74.2903 83.6555 74.2856 83.6296 74.2845C83.6113 74.2836 83.5992 74.2848 83.5967 74.285M83.8152 74.4715L78.3959 77.7773M83.5078 73.7929C83.2548 73.8414 82.9714 74.0112 82.6998 74.2849M83.5078 73.7929L83.6008 74.2842C83.5977 74.2848 83.5962 74.285 83.5962 74.2851C83.5962 74.2851 83.5964 74.2851 83.5967 74.285M83.5078 73.7929L83.602 74.284C83.6002 74.2843 83.5985 74.2847 83.5967 74.285M82.6998 74.2849C82.5399 74.4471 82.3803 74.6582 82.2287 74.8586C82.0607 75.0806 81.9027 75.2896 81.7651 75.4044M82.6998 74.2849L83.0547 74.6371C83.0549 74.637 83.0551 74.6368 83.0553 74.6366M82.6998 74.2849L83.0558 74.6361C83.0556 74.6363 83.0554 74.6364 83.0553 74.6366M81.7651 75.4044L82.0857 75.7882M81.7651 75.4044L82.0855 75.7883C82.0856 75.7883 82.0856 75.7882 82.0857 75.7882M82.0857 75.7882C81.6414 76.1593 81.0765 76.5696 80.48 76.8986C79.8923 77.2227 79.2302 77.4924 78.6018 77.5337L78.6015 77.5337C78.5296 77.5384 78.4146 77.6129 78.3959 77.7773M82.0857 75.7882C82.2666 75.6371 82.4497 75.3952 82.5943 75.2041L82.6029 75.1926L82.6177 75.1732C82.7777 74.9617 82.9193 74.7746 83.0553 74.6366M83.0553 74.6366C83.2822 74.4081 83.477 74.3097 83.5967 74.285M82.2536 79.9114L82.4518 80.595L83.0277 80.1767C83.4965 79.8361 84.0265 79.601 84.5864 79.4434L85.3959 79.2156L84.8091 78.6133C84.5602 78.3578 84.3406 78.0575 84.15 77.7284C83.8414 77.1923 83.6799 76.6238 83.6009 75.9789L83.4559 74.7951L82.7134 75.7285C82.5209 75.9703 82.3824 76.1355 82.2811 76.2204C81.8452 76.5829 81.304 76.9662 80.7343 77.2895L79.8844 77.7719L80.7729 78.1789C80.9986 78.2823 81.2032 78.4006 81.3806 78.5386L81.3819 78.5396C81.7997 78.8625 82.0863 79.3345 82.2536 79.9114Z" fill="#F8D3B0" stroke="#222222"/>
<path id="Vector_2" d="M40.2448 34.9879C42.0178 21.811 59.0341 13.2253 73.5141 15.1736C87.994 17.1219 98.2952 29.3832 96.5222 42.5601C94.7493 55.7369 87.9652 66.9075 73.4852 64.9592C59.0052 63.0109 38.4718 48.1647 40.2448 34.9879Z" fill="#F8D3B0"/>
<path id="Vector_3" d="M54.9035 46.8637L55.2587 47.0523C56.9238 47.9368 58.8977 48.3342 61.1956 48.0489C65.1881 47.5532 68.1202 46.082 70.2156 43.9786C72.3151 41.8711 73.6076 39.0955 74.2579 35.9402C75.1715 31.5021 74.7546 26.3298 73.6224 21.4792C72.4906 16.6306 70.655 12.1496 68.7731 9.10383C68.4681 8.61084 67.7372 8.39263 67.1502 8.67047C66.5978 8.93426 66.4422 9.50663 66.7209 9.95725L66.7209 9.95737C68.5294 12.8842 70.276 17.138 71.354 21.7158C72.4315 26.2913 72.8521 31.2367 71.9664 35.5364C71.4181 38.2017 70.3422 40.6364 68.5267 42.5141C66.7057 44.3973 64.1735 45.6858 60.7793 46.1075L60.7792 46.1075C59.2653 46.2954 57.9253 46.0686 56.7584 45.5279L56.1962 45.2674L56.5696 44.7729C57.0217 44.1744 57.4574 43.5726 57.8749 42.9688C58.6834 41.797 59.8325 39.4797 60.7798 36.767C61.7266 34.0557 62.4523 31.0043 62.451 28.3638L54.9035 46.8637ZM54.9035 46.8637L54.6431 47.1702M54.9035 46.8637L54.6431 47.1702M54.6431 47.1702C44.8366 58.7137 28.7443 68.4893 13.218 71.5239M54.6431 47.1702L13.218 71.5239M56.4094 20.7313L56.4093 20.7313C53.9512 20.4677 51.9636 21.5302 50.5546 23.5824C48.7967 26.1437 47.9935 30.3946 48.4233 34.6859L48.4234 34.6861C48.7784 38.2456 49.9689 41.74 51.9372 44.2231L51.9374 44.2233C52.2126 44.5708 52.503 44.8998 52.8069 45.2089L53.1263 45.5337L52.8327 45.8819C43.3483 57.1285 27.7311 66.6577 12.6194 69.6118L12.6193 69.6118C11.9659 69.7394 11.6581 70.2781 11.787 70.7528L56.4094 20.7313ZM56.4094 20.7313C58.6161 20.9674 60.101 21.8629 61.0467 23.1652M56.4094 20.7313L61.0467 23.1652M61.0467 23.1652C62.0037 24.4831 62.4496 26.2747 62.451 28.3637L61.0467 23.1652ZM13.218 71.5239C12.5446 71.6554 11.9257 71.2609 11.7871 70.7529L13.218 71.5239ZM54.04 43.4008L54.4471 43.8822L55.4411 41.6558L55.8526 41.9398C55.8527 41.9396 55.8529 41.9394 55.853 41.9392C56.644 40.793 57.7084 38.6277 58.5743 36.1471C59.4408 33.6646 60.1278 30.8115 60.1268 28.2908V28.2907C60.126 26.9696 59.9533 25.6611 59.3686 24.6297C58.7638 23.5628 57.747 22.8438 56.1996 22.6777C54.5752 22.5033 53.4037 23.4038 52.5781 24.6077C51.4883 26.1949 50.891 28.4142 50.6974 30.7756L50.6974 30.7759C50.399 34.4458 51.0834 38.6152 52.8993 41.763L53.3324 41.5132L52.8993 41.763C53.2363 42.3471 53.6155 42.8986 54.04 43.4008Z" fill="#222222" stroke="#222222"/>
<g id="Group 13">
<path id="Vector_4" d="M21.0663 54.2668L21.0664 54.2666C21.2488 53.7151 21.9327 53.3481 22.647 53.5598C23.3527 53.7689 23.6761 54.4193 23.4987 54.9561C21.0124 62.4629 14.3857 70.001 7.59039 74.9282L7.59032 74.9282C7.04773 75.3218 6.22333 75.2301 5.77469 74.7205C5.35029 74.2368 5.42698 73.565 5.94001 73.1928C12.325 68.5645 18.6788 61.4719 21.0663 54.2668Z" fill="#222222" stroke="#222222"/>
<path id="Vector_5" d="M6.5008 73.0688L6.50053 73.0689C5.85368 73.3012 5.59613 73.939 5.84194 74.4786L6.5008 73.0688ZM6.5008 73.0688C13.3074 70.62 23.2034 71.4116 30.1511 74.0652C30.8321 74.3264 31.0942 74.9916 30.8678 75.5119C30.6323 76.0531 29.9075 76.366 29.2145 76.102M6.5008 73.0688L29.2145 76.102M29.2145 76.102C22.8858 73.6824 13.8491 72.8578 7.52828 75.1317M29.2145 76.102L7.52828 75.1317M7.52828 75.1317C6.85636 75.373 6.10346 75.0526 5.84195 74.4786L7.52828 75.1317Z" fill="#222222" stroke="#222222"/>
</g>
</g>
</svg>
